<?xml version="1.0" encoding="utf-8"?>
<!-- Generator: Adobe Illustrator 22.1.0, SVG Export Plug-In . SVG Version: 6.00 Build 0)  -->
<svg version="1.1" id="Layer_1" xmlns="http://www.w3.org/2000/svg" xmlns:xlink="http://www.w3.org/1999/xlink" x="0px" y="0px"
	 viewBox="0 0 598.9 190.2" style="enable-background:new 0 0 598.9 190.2;" xml:space="preserve">
<style type="text/css">
	.st0{fill:#FFFFFF;}
	.st1{fill:#0095D5;}
	.st2{fill:#0064A6;}
</style>
<path class="st0" d="M411.4,67.5h-54c0.2,4.1,1.7,7.6,4.3,10.5c3.5,3.8,8.5,5.7,15.1,5.7c8,0,13.7-2.7,17.1-8.2h16.2
	c-6.4,12.7-17.4,19-32.8,19c-12,0-21.2-3.1-27.4-9.4c-5.3-5.4-8-12.3-8-20.8c0-9.5,3.2-17.1,9.6-22.8c6.4-5.7,14.7-8.5,24.9-8.5
	c11.9,0,20.9,3.3,27.1,9.9c5.3,5.8,8,13.3,8,22.5L411.4,67.5L411.4,67.5z M357.4,58h38.5c-0.9-5.2-3.4-9.1-7.6-11.8
	c-3.4-2.1-7.3-3.1-11.8-3.1c-4.2,0-8,1-11.2,3C361.2,48.8,358.6,52.8,357.4,58"/>
<path class="st0" d="M598.9,93.8c-6.4,0-12.7-2.4-13.7-7.3c-5.4,5.2-14.4,7.8-26.8,7.8c-7.4,0-13.1-1.6-17.1-4.7
	c-4-3.1-6.1-7.5-6.1-13.1c0-6.8,3.1-11.6,9.2-14.5c3.4-1.6,8.9-2.7,16.3-3.4c10.6-1,17.2-1.9,19.7-2.7c2.5-0.8,3.8-2.3,3.8-4.5
	c0-5.4-5.4-8.2-16.1-8.2c-9.9,0-19.4,3.2-19.4,3.2l-7.3-6.2c0,0,2-1,6.2-2.9c5-2.3,11.6-4.2,20.5-4.2c13,0,21.9,2.3,26.4,6.8
	c2.8,2.7,4.2,6.8,4.2,12.4v27L598.9,93.8z M584.1,69.3v-5.5c-2.9,1.2-9.3,2.4-19.4,3.5c-5.4,0.6-9.1,1.6-11.2,3
	c-1.8,1.2-2.7,3.1-2.7,5.6c0,5.9,4,8.9,11.9,8.9c5.3,0,9.8-1,13.6-3.1C581.5,79.1,584.1,74.9,584.1,69.3"/>
<path class="st0" d="M223.7,73.7c-5.1,0-7.4,0.2-10,3.9l0-0.1c-0.7,1-1.4,1.8-2.2,2.4c-2.7,2.2-6.7,3.2-12.1,3.2
	c-6,0-10.7-2-13.9-5.9c-2.9-3.5-4.3-7.9-4.3-13.4c0-5.4,1.6-9.9,4.8-13.4c3.6-4,8.6-5.9,15.1-5.9c4.2,0,7.7,1,10.6,3.1
	c0.8,0.5,1.4,1.1,2,1.7v0c0,0,0.1,0.1,0.1,0.1c0.5,0.5,0.9,1,1.3,1.5c2.1,2.1,4.4,2.2,8.6,2.2h8.3c-1.7-7.4-6.1-12.8-13.2-16.3
	c-5.3-2.6-11.2-3.9-17.8-3.9c-11,0-19.6,2.8-25.9,8.4c-6.3,5.6-9.5,13.1-9.5,22.4c0,8.7,2.7,15.8,8.1,21.3
	c6.3,6.3,15.4,9.5,27.3,9.5c5.9,0,11.3-1,16.1-3.1c8-3.5,13-9.4,15-17.8L223.7,73.7L223.7,73.7z"/>
<path class="st0" d="M242.1,35.2v52.6c0.7,3.1,3.3,4.2,6.9,4.6h8V35.2H242.1z"/>
<path class="st0" d="M307.2,33.6c-9.8,0-17.3,3.4-22.7,10.2v-8.6h-14.9V86c0-0.1,0.1-0.1,0.1-0.1c0,4.6,2.8,6.1,7.1,6.5h7.7V61.6
	c0-5.5,2-9.8,6-12.9c3.2-2.5,7.2-3.7,11.8-3.7c9.6,0,14.4,4.4,14.4,13.2v28.7c0.4,3.8,3.1,5.1,7,5.5h7.9V53.5
	C331.6,40.2,323.5,33.6,307.2,33.6"/>
<path class="st0" d="M313.8,147.2h-54c0.2,4.1,1.7,7.6,4.3,10.5c3.5,3.8,8.5,5.7,15.1,5.7c8,0,13.7-2.7,17.1-8.2h16.2
	c-6.4,12.7-17.4,19-32.8,19c-12,0-21.2-3.1-27.4-9.4c-5.3-5.4-8-12.4-8-20.9c0-9.5,3.2-17.1,9.6-22.8c6.4-5.7,14.7-8.5,24.9-8.5
	c11.9,0,20.9,3.3,27.1,9.9c5.3,5.8,8,13.3,8,22.5L313.8,147.2L313.8,147.2z M259.8,137.7h38.5c-0.9-5.2-3.4-9.1-7.6-11.8
	c-3.4-2.1-7.3-3.1-11.8-3.1c-4.3,0-8,1-11.2,3C263.6,128.5,260.9,132.4,259.8,137.7"/>
<polygon class="st0" points="317.1,172 342.8,142.5 319,114.8 338.2,114.8 352.9,133.4 367.9,114.8 387.1,114.8 363,142.5 
	388.9,172 369,172 352.9,151.7 336.4,172 "/>
<path class="st0" d="M398.8,167.7v-42.1h-13.7l8-10.8h5.8v-15h14.9v15h15.6v10.8h-15.6l0.2,48C401.3,173.6,398.8,171.3,398.8,167.7"
	/>
<path class="st0" d="M209.5,113.3c-9.8,0-17.3,3.4-22.7,10.2v-8.6H172v50.5v0c0,6.1,5,6.7,11.9,6.7c0.3,0,0.6,0,0.8,0h2.2v-30.8
	c0-5.5,2-9.8,6-12.9c3.2-2.4,7.2-3.7,11.8-3.7c9.6,0,14.4,4.4,14.4,13.2v28.7c0.7,4.9,5.4,5.4,11.8,5.4c0.3,0,0.6,0,0.8,0h2.3v-38.9
	C234,119.9,225.8,113.3,209.5,113.3"/>
<path class="st0" d="M517.6,37.4c-3.8-2.5-8.8-3.8-14.8-3.8c-10.6,0-18.3,3.5-23.2,10.6c-3-7.1-9.8-10.6-20.2-10.6
	c-9.7,0-17.2,3.4-22.6,10.2h-0.2v-8.6h-14.9v50.8c0,0,0-0.1,0-0.1c0,4.6,2.8,6.1,7.1,6.5h7.8V60.5c0-5.5,1.9-9.7,5.8-12.4
	c2.9-2,6.1-3,9.7-3c5.9,0,9.9,1.4,12,4.3c1.4,1.9,2.1,4.8,2.1,8.9v29.3c0.6,3.3,3.2,4.4,6.9,4.8h8V60.5c0-5.5,2-9.7,5.8-12.4
	c2.9-2,6.1-3,9.7-3c5.9,0,9.9,1.4,12,4.3c1.4,1.9,2.1,4.8,2.1,8.9v28.9c0.5,3.6,3.1,4.8,7,5.2h7.9v-38
	C525.6,46.6,523,40.9,517.6,37.4"/>
<polygon class="st1" points="0,95.1 0,95 72.2,0 72.2,0 72.2,0 72.3,0.2 80.5,70.4 39.4,62.9 39.4,62.9 39.4,62.9 39.4,63 
	39.4,62.9 72.2,190 72.1,189.9 72.2,190 72.2,190.2 0,95.1 "/>
<polygon class="st1" points="72.2,189.7 63.9,94.1 106.2,100.6 72.4,0.4 72.3,0.1 144.4,95 72.2,190 "/>
<polygon class="st2" points="63.9,94.1 72.2,189.7 72.2,102.5 121.2,110.8 72.4,0.4 106.2,100.6 "/>
</svg>
